<svg viewBox="0 0 24 24" xmlns="http://www.w3.org/2000/svg"><path fill="#FFFFFF" d="m17.5,14.4 l-2,-1c-0.3,0 -0.5,-0.1 -0.7,0.2l-1,1.1c-0.1,0.2 -0.3,0.3 -0.6,0.1 -0.3,-0.1 -1.3,-0.5 -2.4,-1.5a9,9 0,0 1,-1.7 -2c-0.1,-0.3 0,-0.5 0.2,-0.6l0.4,-0.6c0.2,-0.1 0.2,-0.3 0.3,-0.5v-0.5L9,7c-0.2,-0.6 -0.4,-0.5 -0.6,-0.5h-0.6a1,1 0,0 0,-0.8 0.4c-0.2,0.3 -1,1 -1,2.5 0,1.4 1,2.8 1.2,3 0.2,0.2 2.1,3.2 5.1,4.5l1.7,0.6a4,4 0,0 0,1.9 0.2c0.5,-0.1 1.7,-0.8 2,-1.5 0.2,-0.7 0.2,-1.2 0.1,-1.4l-0.5,-0.3M12,21.8a9.9,9.9 0,0 1,-5 -1.4l-0.3,-0.2 -3.8,1 1,-3.7 -0.2,-0.3a9.9,9.9 0,0 1,-1.5 -5.3,9.9 9.9,0 0,1 16.8,-7 9.8,9.8 0,0 1,3 7,10 10,0 0,1 -10,9.9m8.5,-18.3A11.8,11.8 0,0 0,12 0,12 12,0 0,0 1.7,17.8L0.1,24l6.3,-1.7a11.9,11.9 0,0 0,5.6 1.5,12 12,0 0,0 12,-11.9 11.8,11.8 0,0 0,-3.5 -8.4Z"/></svg>
